<?xml version="1.0" encoding="utf-8"?>
<!-- Generator: Adobe Illustrator 24.1.2, SVG Export Plug-In . SVG Version: 6.00 Build 0)  -->
<svg version="1.1" id="Layer_1" xmlns="http://www.w3.org/2000/svg" xmlns:xlink="http://www.w3.org/1999/xlink" x="0px" y="0px"
	 viewBox="0 0 1418 431" style="enable-background:new 0 0 1418 431;" xml:space="preserve">
<style type="text/css">
	.st0{fill:#FBCD5A;}
	.st1{fill:#FAB33E;}
	.st2{fill:#161616;}
</style>
<g>
	<path class="st0" d="M130.31,167.61c3.8-6.43,7.65-12.82,11.39-19.29c26.43-45.67,52.83-91.35,79.24-137.03
		c1.41-2.44,3.15-3.3,5.33-2.5c2.29,0.84,2.74,2.66,2.49,4.9c-1.67,14.76-3.33,29.53-4.94,44.3c-0.91,8.38-1.67,16.78-2.58,25.17
		c-1.15,10.54-2.41,21.06-3.58,31.59c-0.93,8.38-1.78,16.77-2.67,25.15c-0.02,0.16,0,0.32-0.01,0.48c-0.53,5.35-0.53,5.34,4.77,5.34
		c29.93,0,59.85,0,89.78,0c1.37,0,2.74-0.05,3.91,0.88c1.8,1.44,2.07,3.35,0.65,5.8c-6.62,11.49-13.26,22.97-19.9,34.44
		c-33.81,58.41-67.62,116.81-101.41,175.23c-0.96,1.66-1.9,3.23-4.08,3.27c-2.48,0.05-4.3-1.9-4.07-4.61
		c0.37-4.56,0.87-9.12,1.38-13.67c0.57-5.11,1.21-10.2,1.8-15.31c0.79-6.86,1.6-13.71,2.35-20.57c0.7-6.39,1.32-12.78,2.02-19.17
		c0.75-6.86,1.58-13.71,2.33-20.57c0.3-2.71,0.49-5.43,0.73-8.15c0.61-5.14,1.3-10.28,1.8-15.44c0.52-5.33,0.96-10.68,1.88-15.96
		c0.59-3.42,0.22-3.92-3.23-3.92c-0.48,0-0.97,0-1.45,0c-30.39,0-60.78-0.02-91.17,0.04c-2.1,0-3.28-0.94-4.28-2.52
		c-0.88-1.4-0.28-2.69,0.4-3.86c4.77-8.25,9.66-16.43,14.39-24.71c3.69-6.45,7.42-12.87,11.28-19.22
		C126.85,174.47,128.51,170.99,130.31,167.61z"/>
	<path class="st1" d="M130.31,167.61c-1.81,3.38-3.46,6.85-5.45,10.12c-3.86,6.35-7.59,12.77-11.28,19.22
		c-4.73,8.28-9.62,16.46-14.39,24.71c-0.68,1.17-1.28,2.46-0.4,3.86c1,1.58,2.18,2.52,4.28,2.52c30.39-0.06,60.78-0.04,91.17-0.04
		c0.48,0,0.97,0,1.45,0c3.46,0,3.83,0.49,3.23,3.92c-0.91,5.28-1.36,10.63-1.88,15.96c-0.5,5.15-1.19,10.29-1.8,15.44
		c-1.65,0.93-2.06,2.75-2.91,4.2c-29.28,50.55-58.52,101.13-87.76,151.71c-0.73,1.26-1.41,2.55-3,2.93
		c-3.09,0.73-5.49-1.48-5.11-4.87c1.19-10.62,2.49-21.23,3.67-31.85c0.92-8.3,1.68-16.62,2.58-24.92
		c1.14-10.54,2.38-21.07,3.54-31.61c0.93-8.46,1.79-16.94,2.72-25.4c0.58-5.35,1.17-10.7,1.88-16.03c0.25-1.91-0.28-2.42-2.24-2.42
		c-30.73,0.06-61.45,0.05-92.18,0.05c-0.56,0-1.13,0.02-1.69,0c-3.63-0.14-5.46-3.16-3.66-6.34c4.15-7.35,8.43-14.63,12.66-21.93
		c36.27-62.7,72.55-125.4,108.82-188.1c1.76-3.04,3.21-3.84,5.46-3.04c1.95,0.69,2.88,2.09,2.69,4.07
		c-0.7,7.28-1.47,14.55-2.26,21.82c-0.76,7.02-1.56,14.04-2.36,21.06c-0.93,8.21-1.91,16.41-2.82,24.63
		c-0.71,6.39-1.43,12.78-1.98,19.18C130.97,160.17,130.06,163.84,130.31,167.61z"/>
</g>
<g>
	<g>
		<path class="st2" d="M573.75,159.3c14.8,0,29.14,0.29,43.45-0.16c5.09-0.16,5.85,2.79,6.99,6.21c8.49,25.5,16.96,51,25.55,76.47
			c0.7,2.07,0.85,4.62,3.18,5.91c9.86-27.66,19.87-55.25,29.43-82.99c1.44-4.17,3.01-5.63,7.34-5.52
			c11.26,0.28,22.53,0.31,33.78-0.02c4.16-0.12,5.75,1.68,6.91,5.18c9.29,27.89,18.69,55.75,28.34,84.48
			c4.38-7.23,5.96-14.8,8.52-21.89c7.47-20.73,14.67-41.57,21.59-62.5c1.4-4.22,3.23-5.37,7.5-5.27c13.24,0.3,26.49,0.11,40.35,0.11
			c-13.37,37.61-26.51,74.57-39.63,111.54c-3.82,10.76-7.74,21.5-11.33,32.34c-1.3,3.93-3.16,5.51-7.56,5.38
			c-12.28-0.36-24.59-0.49-36.85,0.02c-6.22,0.26-9.02-1.51-11.02-7.7c-7.81-24.1-16.35-47.96-25.13-73.41
			c-6.25,17.41-12.02,33.46-17.78,49.51c-3.26,9.08-6.69,18.11-9.68,27.28c-1.03,3.17-2.29,4.32-5.78,4.26
			c-14.07-0.25-28.16-0.1-42.24-0.1c-2.52,0-4.44,0.23-5.66-3.28c-16.63-47.95-33.54-95.82-50.35-143.71
			C573.52,161.01,573.7,160.45,573.75,159.3z"/>
		<path class="st2" d="M587.47,308.44c-19.17,0-38.11-0.13-57.05,0.11c-3.97,0.05-5.9-1.82-8.06-4.57
			c-15.92-20.32-32.07-40.46-47.9-60.85c-2.79-3.6-3.82-3.21-7.27-0.45c-13.46,10.8-19.2,24.08-16.52,41.33
			c0.97,6.25-0.01,12.79,0.24,19.18c0.15,3.74-0.57,5.44-4.92,5.35c-14.59-0.28-29.19-0.25-43.78-0.01
			c-4.14,0.07-5.08-1.29-5.08-5.24c0.12-60.7,0.13-121.4-0.01-182.11c-0.01-4.35,1.65-4.97,5.38-4.92
			c14.34,0.17,28.68,0.26,43.02-0.03c4.52-0.09,5.45,1.45,5.42,5.65c-0.18,24.03-0.09,48.07-0.09,73.95
			c7.9-8.38,14.79-15.62,21.6-22.92c16.24-17.4,32.52-34.77,48.63-52.3c2.79-3.04,5.59-4.45,9.85-4.39
			c17.39,0.25,34.78,0.11,53.72,0.11c-5.78,6.44-10.73,12.05-15.78,17.57c-19.19,20.95-38.33,41.94-57.7,62.72
			c-3.36,3.61-3.91,5.76-0.56,10.05c25.19,32.2,50.02,64.67,74.93,97.09C586.38,304.88,587.95,305.71,587.47,308.44z"/>
		<path class="st2" d="M1308.07,176.75c-0.01,17.15,0.55,34.32-0.12,51.45c-1.41,36.15-16.68,67.57-55.62,78.97
			c-32.86,9.62-65.29,8.41-94.27-12.51c-18.72-13.51-27.58-33.25-29.4-55.72c-3.15-38.81-0.69-77.74-1.48-116.61
			c-0.09-4.57,0.91-6.24,5.85-6.12c14.32,0.34,28.67,0.39,42.99-0.01c5.38-0.15,6.17,1.86,6.14,6.56
			c-0.17,33.02-0.08,66.04-0.1,99.06c0,7.65,0.51,15.17,3.08,22.51c6.04,17.24,20.06,25.23,40.04,22.56
			c15.06-2.01,26.3-14.71,27.77-31.05c3.23-36.01,0.73-72.1,1.46-108.14c0.23-11.36,0.04-11.37,11.77-11.37
			c12.03,0,24.06,0.24,36.08-0.12c4.82-0.14,5.99,1.31,5.92,6.01C1307.91,140.4,1308.07,158.57,1308.07,176.75z"/>
		<path class="st2" d="M990.35,211.15c17.24-16.77,33.21-32.18,48.98-47.78c2.93-2.9,5.82-4.21,10-4.16
			c18.16,0.22,36.32,0.1,56.23,0.1c-6.65,6.92-12.34,12.88-18.06,18.8c-13.32,13.82-26.52,27.76-40.08,41.33
			c-3.28,3.28-3.23,4.96-0.36,8.54c21.05,26.29,41.81,52.82,63.59,80.46c-14.21,0-27.45-1.15-40.4,0.29
			c-16.37,1.82-27.87-2.86-36.75-17.22c-6.93-11.21-16.47-20.78-24.5-31.35c-2.42-3.18-3.53-2.82-6.3-0.49
			c-8.83,7.43-14.4,15.66-12.62,28.18c0.93,6.55,3.29,15.81-1.32,19.65c-3.97,3.3-12.71,0.89-19.35,0.93
			c-8.96,0.05-17.93-0.16-26.88,0.1c-3.74,0.11-4.68-1.13-4.68-4.76c0.1-64.53,0.11-129.06,0-193.59c-0.01-3.97,0.99-5.23,5.09-5.15
			c13.82,0.26,27.66,0.4,41.47-0.04c5.5-0.18,6.05,2.03,6.03,6.6C990.28,144.06,990.35,176.55,990.35,211.15z"/>
		<path class="st2" d="M1345.1,211.71c0-29.7,0.11-59.4-0.11-89.1c-0.04-4.85,1-6.55,6.19-6.4c14.07,0.39,28.16,0.29,42.23,0.04
			c4.24-0.08,5.6,0.98,5.59,5.43c-0.15,60.43-0.15,120.86-0.01,181.28c0.01,4.26-0.97,5.67-5.42,5.59
			c-14.07-0.28-28.17-0.46-42.23,0.05c-5.96,0.22-6.37-2.15-6.34-7.01C1345.2,271.63,1345.1,241.67,1345.1,211.71z"/>
		<path class="st2" d="M904.14,233.9c0,22.77-0.14,45.54,0.11,68.31c0.05,4.89-1.06,6.52-6.22,6.36c-13.29-0.39-26.6-0.23-39.9-0.07
			c-3.89,0.05-5.94-0.38-5.92-5.23c0.18-46.31,0.16-92.61,0.02-138.92c-0.01-4.11,1.26-5.18,5.22-5.12
			c13.81,0.21,27.63,0.27,41.43-0.05c4.56-0.1,5.37,1.49,5.34,5.63C904.04,187.85,904.14,210.87,904.14,233.9z"/>
		<path class="st2" d="M878.9,88.21c20.05,0.11,32.26,11.48,31.38,29.15c-0.35,7.01-3.46,12.69-8.3,17.53
			c-8.56,8.57-26.19,11.16-38.7,5.75c-10.73-4.64-17.06-14.93-16.48-26.78C847.55,98.46,860.51,88.1,878.9,88.21z"/>
	</g>
</g>
</svg>
